<svg xmlns="http://www.w3.org/2000/svg" width="12" height="12" fill="none" viewBox="0 0 12 12"><g clip-path="url(#a)"><path fill="#a56fff" fill-rule="evenodd" d="M6 0C2.685 0 0 2.54 0 5.674c0 2.51 1.718 4.631 4.103 5.383.3.05.412-.12.412-.27 0-.134-.007-.581-.007-1.056C3 9.993 2.61 9.383 2.49 9.064c-.068-.163-.36-.667-.615-.801-.21-.107-.51-.37-.008-.376.473-.007.81.411.923.581.54.858 1.402.617 1.747.468.053-.368.21-.617.383-.758-1.335-.142-2.73-.632-2.73-2.802 0-.617.232-1.128.615-1.525-.06-.142-.27-.723.06-1.503 0 0 .502-.15 1.65.581.48-.128.99-.191 1.5-.191s1.02.063 1.5.191c1.148-.737 1.65-.581 1.65-.581.33.78.12 1.361.06 1.503.383.397.615.9.615 1.525 0 2.177-1.402 2.66-2.737 2.802.217.177.405.517.405 1.05 0 .758-.008 1.368-.008 1.56 0 .149.112.326.412.269a6 6 0 0 0 2.96-2.07A5.48 5.48 0 0 0 12 5.674C12 2.539 9.315 0 6 0" clip-rule="evenodd"/></g><defs><clipPath id="a"><path fill="#fff" d="M0 0h12v11.348H0z"/></clipPath></defs></svg>