<svg xmlns="http://www.w3.org/2000/svg">
    <symbol id="icon-phone" fill="none" viewBox="0 0 12 12">
        <path fill="currentColor"
            d="M5.277 2.95 3.585 1.104c-.195-.213-.552-.212-.779.003l-1.39 1.318c-.415.392-.533.974-.294 1.44 1.431 2.802 3.82 5.064 6.781 6.421.493.227 1.108.115 1.522-.277l1.404-1.33c.227-.215.228-.555.001-.74L8.87 6.35c-.205-.167-.524-.146-.729.05l-.682.645a.243.243 0 0 1-.277.042 7.1 7.1 0 0 1-2.68-2.538.21.21 0 0 1 .044-.262l.68-.643c.206-.196.229-.499.051-.693" />
    </symbol>
    <symbol id="icon-telegram" fill="none" viewBox="0 0 24 24" stroke-width="1.5">
        <path fill="currentColor"
            d="M12 4a8 8 0 1 0 0 16 8 8 0 0 0 0-16m3.93 5.48-1.31 6.19c-.1.44-.36.54-.73.34l-2-1.48-1 .93a.51.51 0 0 1-.4.2l.14-2 3.7-3.35c.17-.14 0-.22-.24-.08l-4.54 2.85-2-.62c-.43-.13-.44-.43.09-.63l7.71-3c.38-.11.7.11.58.65" />
    </symbol>
    <symbol id="icon-github" fill="none" viewBox="0 0 12 12">
        <g clip-path="url(#a)">
            <path fill="currentColor" fill-rule="evenodd"
                d="M6 0C2.685 0 0 2.54 0 5.674c0 2.51 1.718 4.631 4.103 5.383.3.05.412-.12.412-.27 0-.134-.007-.581-.007-1.056C3 9.993 2.61 9.383 2.49 9.064c-.068-.163-.36-.667-.615-.801-.21-.107-.51-.37-.008-.376.473-.007.81.411.923.581.54.858 1.402.617 1.747.468.053-.368.21-.617.383-.758-1.335-.142-2.73-.632-2.73-2.802 0-.617.232-1.128.615-1.525-.06-.142-.27-.723.06-1.503 0 0 .502-.15 1.65.581.48-.128.99-.191 1.5-.191s1.02.063 1.5.191c1.148-.737 1.65-.581 1.65-.581.33.78.12 1.361.06 1.503.383.397.615.9.615 1.525 0 2.177-1.402 2.66-2.737 2.802.217.177.405.517.405 1.05 0 .758-.008 1.368-.008 1.56 0 .149.112.326.412.269a6 6 0 0 0 2.96-2.07A5.48 5.48 0 0 0 12 5.674C12 2.539 9.315 0 6 0"
                clip-rule="evenodd" />
        </g>
        <defs>
            <clipPath id="a">
                <path fill="#fff" d="M0 0h12v11.348H0z" />
            </clipPath>
        </defs>
    </symbol>
    <symbol id="icon-city" viewBox="0 0 50 50">
        <path
            fill="currentColor"
            d="M15 5a1 1 0 0 0-1 1v19H7a1 1 0 0 0-1 1v3.717L.049 43.605A1 1 0 0 0 .967 45H49.14a1 1 0 0 0 .906-1.424L44 30.621V22a1 1 0 0 0-1-1h-6v-7a1 1 0 0 0-1-1h-7V6a1 1 0 0 0-1-1zm1 2h11v6h-4a1 1 0 0 0-1 1v11h-6zm2 2v2h2V9zm5 0v2h2V9zm-5 4v2h2v-2zm6 2h11v6h-4a1 1 0 0 0-1 1v17h-6V15m-6 2v2h2v-2zm8 0v2h2v-2zm5 0v2h2v-2zm-13 4v2h2v-2zm8 0v2h2v-2zm6 2h10v16H32zm-6 2v2h2v-2zm8 0v2h2v-2zm4 0v2h2v-2zM8 27h14v12H8zm2 2v2h2v-2zm4 0v2h2v-2zm4 0v2h2v-2zm8 0v2h2v-2zm8 0v2h2v-2zm4 0v2h2v-2zm-28 4v2h2v-2zm4 0v2h2v-2zm4 0v2h2v-2zm8 0v2h2v-2zm8 0v2h2v-2zm4 0v2h2v-2zM6 34.797V40a1 1 0 0 0 1 1h36a1 1 0 0 0 1-1v-4.65L47.57 43H2.484z" />
    </symbol>
    <symbol id="icon-mail" viewBox="0 0 12 12" fill="none" xmlns="http://www.w3.org/2000/svg">
        <path
            d="M1 2.83696C1 2.58615 1.10536 2.34562 1.29289 2.16828C1.48043 1.99093 1.73478 1.8913 2 1.8913H10C10.2652 1.8913 10.5196 1.99093 10.7071 2.16828C10.8946 2.34562 11 2.58615 11 2.83696V8.51087C11 8.76167 10.8946 9.0022 10.7071 9.17955C10.5196 9.35689 10.2652 9.45652 10 9.45652H2C1.73478 9.45652 1.48043 9.35689 1.29289 9.17955C1.10536 9.0022 1 8.76167 1 8.51087V2.83696Z"
            stroke="currentColor" stroke-width="2" stroke-linecap="round" stroke-linejoin="round" />
        <path
            d="M1.5 2.36413L4.6715 5.02992C5.03761 5.33767 5.51041 5.50767 6.00025 5.50767C6.49009 5.50767 6.96289 5.33767 7.329 5.02992L10.5 2.36413"
            stroke="currentColor" stroke-width="2" stroke-linejoin="round" />
    </symbol>
    <svg id="icon-zip" viewBox="0 0 24 24">
        <path fill="none" stroke="currentColor" stroke-width="2"
            d="M4.998 9V1H19.5L23 4.5V23H4M18 1v5h5M2 13h5v1l-4 4v1h5m3-7v8zm4 1v7zm5 2a2 2 0 0 0-2-2h-3v4h3a2 2 0 0 0 2-2Z" />
    </svg>
</svg>